<svg xmlns="http://www.w3.org/2000/svg" width="21.968" height="21.968" viewBox="0 0 21.968 21.968"><defs><style>.a{fill:#f01d1d;}.b{fill:#fafafa;}</style></defs><path class="a" d="M19.451,0H2.517A2.519,2.519,0,0,0,0,2.517V19.451a2.519,2.519,0,0,0,2.517,2.517H19.451a2.519,2.519,0,0,0,2.517-2.517V2.517A2.519,2.519,0,0,0,19.451,0Z"/><path class="b" d="M163.83,162.536a.915.915,0,1,1-1.294,1.294l-2.751-2.751-2.751,2.751a.915.915,0,0,1-1.294-1.294l2.751-2.751-2.751-2.751a.915.915,0,0,1,1.294-1.294l2.751,2.751,2.751-2.751a.915.915,0,0,1,1.294,1.294l-2.751,2.751Z" transform="translate(-148.801 -148.801)"/></svg>